<svg width="24" height="26" viewBox="0 0 24 26" fill="none" xmlns="http://www.w3.org/2000/svg">
<path d="M15 1C15 0.447715 15.4477 0 16 0C16.5523 0 17 0.447715 17 1V5C17 5.55228 16.5523 6 16 6C15.4477 6 15 5.55228 15 5V1Z" fill="white"/>
<path d="M14 2.03445C13.3715 2.0108 12.7056 2 12 2C11.2944 2 10.6285 2.0108 10 2.03445V5C10 6.10457 9.10457 7 8 7C6.89543 7 6 6.10457 6 5V2.47565C2.4923 3.24272 0.907443 5.07202 0.308061 8.90093C0.216458 9.48609 0.682422 10 1.27471 10H22.7253C23.3176 10 23.7835 9.4861 23.6919 8.90093C23.0926 5.07202 21.5077 3.24272 18 2.47565V5C18 6.10457 17.1046 7 16 7C14.8954 7 14 6.10457 14 5V2.03445Z" fill="white"/>
<path fill-rule="evenodd" clip-rule="evenodd" d="M12 26C2.118 26 0 23.882 0 14C0 13.6443 0.00274476 13.2986 0.00849768 12.9627C0.0177051 12.4251 0.459871 12 0.997524 12H23.0025C23.5401 12 23.9823 12.4251 23.9915 12.9627C23.9973 13.2986 24 13.6443 24 14C24 23.882 21.882 26 12 26ZM5 16C5 15.4477 5.44772 15 6 15H9C9.55228 15 10 15.4477 10 16C10 16.5523 9.55228 17 9 17H6C5.44772 17 5 16.5523 5 16ZM6 19C5.44772 19 5 19.4477 5 20C5 20.5523 5.44772 21 6 21H9C9.55228 21 10 20.5523 10 20C10 19.4477 9.55228 19 9 19H6ZM17.883 15.2972C18.2735 14.9066 18.9067 14.9066 19.2972 15.2972C19.6877 15.6877 19.6877 16.3209 19.2972 16.7114L15.2609 20.7476C15.0551 20.9535 14.7818 21.0508 14.5122 21.0397C14.2657 21.0328 14.0212 20.9353 13.8331 20.7472L12.4189 19.333C12.0283 18.9424 12.0283 18.3093 12.4189 17.9187C12.8094 17.5282 13.4426 17.5282 13.8331 17.9187L14.5472 18.6329L17.883 15.2972Z" fill="white"/>
<path d="M7 1C7 0.447715 7.44772 0 8 0C8.55228 0 9 0.447715 9 1V5C9 5.55228 8.55228 6 8 6C7.44772 6 7 5.55228 7 5V1Z" fill="white"/>
</svg>
