<svg width="20" height="20" viewBox="0 0 20 20" fill="none" xmlns="http://www.w3.org/2000/svg">
<path fill-rule="evenodd" clip-rule="evenodd" d="M20 8.8889C20 1.48151 18.235 0 10 0C1.765 0 0 1.56889 0 8.8889C0 13.609 0.833537 16.6667 4.58354 16.6667C6.58759 16.6667 7.18374 17.6186 7.73886 18.5051C8.2225 19.2774 8.67499 20 10.0002 20C11.3255 20 11.778 19.2774 12.2616 18.5051C12.8167 17.6186 13.4129 16.6667 15.4169 16.6667C19.1669 16.6667 20 13.7037 20 8.8889ZM6.66667 10C7.1269 10 7.5 9.6269 7.5 9.16667C7.5 8.70643 7.1269 8.33333 6.66667 8.33333C6.20643 8.33333 5.83333 8.70643 5.83333 9.16667C5.83333 9.6269 6.20643 10 6.66667 10ZM10.8333 9.16667C10.8333 9.6269 10.4602 10 10 10C9.53976 10 9.16667 9.6269 9.16667 9.16667C9.16667 8.70643 9.53976 8.33333 10 8.33333C10.4602 8.33333 10.8333 8.70643 10.8333 9.16667ZM13.3333 10C13.7936 10 14.1667 9.6269 14.1667 9.16667C14.1667 8.70643 13.7936 8.33333 13.3333 8.33333C12.8731 8.33333 12.5 8.70643 12.5 9.16667C12.5 9.6269 12.8731 10 13.3333 10Z" fill="#27AE60"/>
</svg>
