<svg width="17" height="16" viewBox="0 0 17 16" fill="none" xmlns="http://www.w3.org/2000/svg">
<path d="M11.5909 7.81817L8.18179 11.2273M8.18179 11.2273L4.7727 7.81817M8.18179 11.2273L8.18179 1.68181" stroke="white" stroke-width="2" stroke-linecap="round" stroke-linejoin="round"/>
<path fill-rule="evenodd" clip-rule="evenodd" d="M3.40909 4.86879C3.40909 4.28254 2.85173 3.84114 2.31913 4.08613C0.506501 4.91994 0 6.57245 0 9.663C0 14.8815 1.44409 15.9999 8.18182 15.9999C14.9195 15.9999 16.3636 14.8815 16.3636 9.663C16.3636 6.57245 15.8571 4.91994 14.0445 4.08613C13.5119 3.84114 12.9545 4.28254 12.9545 4.86879V5.76155C12.9545 5.76769 12.9496 5.77267 12.9434 5.77267C12.9308 5.77267 12.9278 5.79071 12.9397 5.79491C13.2431 5.90205 13.4411 6.0153 13.5747 6.11881C13.951 6.41028 14.3636 7.05696 14.3636 9.663C14.3636 12.269 13.951 12.9157 13.5747 13.2072C13.332 13.3952 12.8772 13.6153 11.9634 13.7726C11.0502 13.9298 9.83171 13.9999 8.18182 13.9999C6.53193 13.9999 5.31341 13.9298 4.4002 13.7726C3.48646 13.6153 3.03167 13.3952 2.78893 13.2072C2.41259 12.9157 2 12.269 2 9.663C2 7.05696 2.41259 6.41028 2.78893 6.11881C2.92257 6.0153 3.1205 5.90205 3.4239 5.79491C3.4358 5.79071 3.43283 5.77267 3.42021 5.77267C3.41407 5.77267 3.40909 5.76769 3.40909 5.76155V4.86879Z" fill="white"/>
</svg>
