<svg width="20" height="20" viewBox="0 0 20 20" fill="none" xmlns="http://www.w3.org/2000/svg">
<path fill-rule="evenodd" clip-rule="evenodd" d="M0 10C0 18.235 1.765 20 10 20C18.235 20 20 18.235 20 10C20 1.765 18.235 0 10 0C1.765 0 0 1.765 0 10ZM10 8.33333C10.4602 8.33333 10.8333 8.70643 10.8333 9.16667V14.1667C10.8333 14.6269 10.4602 15 10 15C9.53976 15 9.16667 14.6269 9.16667 14.1667V9.16667C9.16667 8.70643 9.53976 8.33333 10 8.33333ZM10 5.83333C9.53976 5.83333 9.16667 6.20643 9.16667 6.66667C9.16667 7.1269 9.53976 7.5 10 7.5C10.4602 7.5 10.8333 7.1269 10.8333 6.66667C10.8333 6.20643 10.4602 5.83333 10 5.83333Z" fill="#27AE60"/>
</svg>
