<svg width="22" height="22" viewBox="0 0 22 22" fill="none" xmlns="http://www.w3.org/2000/svg">
<path d="M6.92308 19.707C8.48916 20.7157 10.7968 20.2083 11.5385 18.6923" stroke="white" stroke-width="2" stroke-linecap="round" stroke-linejoin="round"/>
<path d="M17.3178 9.46155C17.3178 6.76924 15.3948 4.84616 12.7025 4.84616" stroke="white" stroke-width="2" stroke-linecap="round" stroke-linejoin="round"/>
<path d="M20.3948 9.46155C20.3948 4.84616 17.3178 1.76924 12.7025 1.76924" stroke="white" stroke-width="2" stroke-linecap="round" stroke-linejoin="round"/>
<path fill-rule="evenodd" clip-rule="evenodd" d="M5.87494 4.20584C5.87216 4.19285 5.86904 4.17986 5.86556 4.16689C5.75561 3.75653 5.33381 3.513 4.92345 3.62296C4.51309 3.73291 4.26957 4.15471 4.37952 4.56507C4.383 4.57805 4.38679 4.59087 4.39088 4.60351C1.99955 5.62849 0.408573 9.05301 1.61367 12.0753C2.0606 12.9792 1.59474 13.6463 1.10986 14.3407C0.651676 14.9969 0.176504 15.6774 0.438448 16.6049C0.788047 17.9096 1.72034 18.4176 2.90526 18.4759C2.90526 18.4759 5.10799 18.7045 8.70624 17.7403C12.3045 16.7762 14.0979 15.4769 14.0979 15.4769C15.0948 14.8339 15.6388 13.8918 15.2987 12.6231C15.047 11.6842 14.2955 11.3322 13.5745 10.9944C12.8107 10.6366 12.081 10.2948 12.0161 9.28796C11.5486 6.06801 8.4584 3.89776 5.87494 4.20584Z" fill="white"/>
</svg>
