<svg width="21" height="20" viewBox="0 0 21 20" fill="none" xmlns="http://www.w3.org/2000/svg">
<path fill-rule="evenodd" clip-rule="evenodd" d="M10.0273 0C9.60997 0 9.29842 0.227359 9.12164 0.387574C8.92718 0.563815 8.75589 0.78686 8.60798 1.00984C8.30935 1.46003 8.01641 2.0482 7.75094 2.64703C7.21595 3.8538 6.7329 5.24136 6.48042 5.99884C6.47672 6.00995 6.46581 6.01869 6.4526 6.01914C5.66157 6.04587 4.21187 6.11682 2.94831 6.30213C2.32407 6.39367 1.6954 6.5199 1.20455 6.70267C0.962865 6.79267 0.69929 6.91612 0.481882 7.09522C0.261846 7.27648 0 7.59416 0 8.05228C0 8.36912 0.119873 8.64959 0.228382 8.84974C0.344688 9.06427 0.498397 9.27688 0.66281 9.47765C0.992351 9.88005 1.42809 10.3108 1.8786 10.7205C2.78393 11.5438 3.83234 12.3568 4.42884 12.8063C4.43824 12.8134 4.44263 12.8252 4.43873 12.838C4.20966 13.59 3.81181 14.9661 3.55872 16.2424C3.43301 16.8764 3.33594 17.5199 3.32136 18.0634C3.31411 18.3338 3.32601 18.6136 3.38007 18.8703C3.43042 19.1093 3.54106 19.4448 3.82421 19.695C4.14201 19.9759 4.52449 20.0131 4.78933 19.9967C5.06014 19.98 5.33137 19.9016 5.57307 19.8104C6.06118 19.6261 6.61216 19.3179 7.14047 18.9851C8.20774 18.3127 9.33785 17.44 9.98053 16.9268C9.99217 16.9175 10.0093 16.9173 10.0215 16.927C10.664 17.4406 11.795 18.3139 12.8703 18.9867C13.4028 19.3199 13.9595 19.6282 14.456 19.8122C14.7025 19.9035 14.9766 19.9805 15.2498 19.9968C15.5181 20.0129 15.89 19.9752 16.2074 19.7147C16.5047 19.4706 16.6283 19.1352 16.6856 18.8865C16.746 18.6246 16.76 18.3402 16.7533 18.0678C16.7399 17.5203 16.6378 16.8743 16.5054 16.2405C16.2389 14.964 15.8173 13.5875 15.5734 12.8323C15.5691 12.8189 15.5736 12.8064 15.5834 12.7991C16.1829 12.3471 17.229 11.5352 18.1313 10.714C18.5803 10.3053 19.0143 9.87573 19.3425 9.47441C19.5063 9.27417 19.6594 9.06208 19.7752 8.84799C19.8834 8.64818 20.0027 8.36837 20.0027 8.05228C20.0027 7.59465 19.7414 7.27713 19.5215 7.09581C19.3043 6.9167 19.0411 6.79325 18.7997 6.70326C18.3095 6.52051 17.6817 6.39428 17.0583 6.3027C15.7964 6.11734 14.3478 6.04619 13.555 6.0193C13.5417 6.01885 13.5309 6.01015 13.5273 5.99894C13.2805 5.2392 12.8096 3.85284 12.2854 2.64773C12.0253 2.04981 11.7376 1.4622 11.4427 1.0122C11.2967 0.789333 11.1269 0.565849 10.9331 0.389037C10.7565 0.227849 10.4453 0 10.0273 0Z" fill="white"/>
</svg>
