<svg width="21" height="20" viewBox="0 0 21 20" fill="none" xmlns="http://www.w3.org/2000/svg">
<path d="M9.12241 10C6.37431 10 4.14655 7.76142 4.14655 5C4.14655 2.23858 6.37431 0 9.12241 0C11.8705 0 14.0983 2.23858 14.0983 5C14.0983 7.76142 11.8705 10 9.12241 10Z" fill="#27AE60"/>
<path d="M9.12241 20C1.6101 20 0 19.2646 0 15.8333C0 12.4021 1.6101 11.6667 9.12241 11.6667C16.6347 11.6667 18.2448 12.4021 18.2448 15.8333C18.2448 19.2646 16.6347 20 9.12241 20Z" fill="#27AE60"/>
<path d="M15.8992 10.6904C15.5753 10.3649 15.5753 9.8373 15.8992 9.51186L17.072 8.33333L15.8992 7.15481C15.5753 6.82937 15.5753 6.30173 15.8992 5.9763C16.223 5.65086 16.7481 5.65086 17.072 5.9763L18.2448 7.15482L19.4176 5.97633C19.7415 5.65089 20.2666 5.65089 20.5904 5.97633C20.9143 6.30176 20.9143 6.8294 20.5904 7.15484L19.4176 8.33333L20.5904 9.51183C20.9143 9.83727 20.9143 10.3649 20.5904 10.6903C20.2666 11.0158 19.7415 11.0158 19.4176 10.6903L18.2448 9.51184L17.072 10.6904C16.7481 11.0158 16.223 11.0158 15.8992 10.6904Z" fill="#27AE60"/>
</svg>
